<?xml version="1.0" encoding="UTF-8" standalone="yes"?>
<svg xmlns="http://www.w3.org/2000/svg" xmlns:xlink="http://www.w3.org/1999/xlink" width="62.973pt" height="62.201pt" version="1.1" viewBox="-31.485 736.911 62.973 62.201">
  <!--
	Exported with Concepts: Smarter Sketching
	Version: 2024.1.9 on Microsoft Windows NT 10.0.22621.0
	https://concepts.app/
	-->
  <title>Filler Icon</title>
  <desc>Drawing exported from Concepts: Smarter Sketching</desc>
  <defs></defs>
  <g id="Pen" opacity="1.000">
    <path id="STROKE_c43ccc20-3ab0-4bae-81d8-a32912f24a03" opacity="1.000" fill="none" stroke="currentColor" stroke-width="3.029" stroke-opacity="1.000" stroke-linecap="round" stroke-linejoin="round" d="M 28.088 739.445 L 27.840 739.491 Q 26.111 739.886 25.034 740.155 Q 23.957 740.425 23.222 740.619 Q 22.486 740.813 21.651 741.037 Q 20.816 741.261 19.894 741.531 Q 18.973 741.800 17.626 742.232 Q 16.280 742.665 15.253 743.027 Q 14.226 743.389 11.705 744.398 Q 9.185 745.407 8.412 745.752 Q 7.638 746.097 6.988 746.402 Q 6.339 746.708 5.201 747.263 Q 4.063 747.817 3.207 748.260 Q 2.351 748.703 0.433 749.790 Q -1.485 750.876 -2.333 751.405 Q -3.181 751.934 -3.863 752.385 Q -4.545 752.837 -5.129 753.246 Q -5.713 753.654 -6.052 753.896 Q -6.391 754.137 -7.051 754.636 Q -7.712 755.134 -8.384 755.686 Q -9.055 756.239 -9.829 756.923 Q -10.602 757.607 -10.982 757.959 Q -11.362 758.311 -12.014 758.956 Q -12.667 759.600 -13.048 760.006 Q -13.429 760.411 -13.633 760.632 Q -13.836 760.852 -14.697 761.854 Q -15.559 762.855 -16.766 764.431 Q -17.974 766.007 -18.613 766.938 Q -19.252 767.868 -19.995 769.044 Q -20.739 770.221 -21.488 771.534 Q -22.237 772.847 -22.830 773.974 Q -23.424 775.101 -23.697 775.661 Q -23.971 776.221 -24.768 778.059 Q -25.565 779.896 -25.650 780.109 Q -25.735 780.323 -26.065 781.224 Q -26.395 782.125 -26.857 783.600 Q -27.319 785.075 -27.546 785.942 Q -27.773 786.809 -27.942 787.552 Q -28.110 788.295 -28.171 788.570 Q -28.232 788.846 -28.401 789.743 Q -28.569 790.641 -28.751 791.809 Q -28.932 792.977 -29.068 794.152 Q -29.204 795.326 -29.364 796.629 "></path>
    <path id="STROKE_3aa31dda-9137-49b7-92b9-403e0c75c583" opacity="1.000" fill="none" stroke="currentColor" stroke-width="3.029" stroke-opacity="1.000" stroke-linecap="round" stroke-linejoin="round" d="M 28.511 739.008 Q 28.682 740.728 28.721 741.116 Q 28.761 741.504 28.919 743.329 Q 29.076 745.154 29.180 746.863 Q 29.284 748.572 29.316 749.404 Q 29.348 750.237 29.356 751.682 Q 29.364 753.128 29.281 755.036 Q 29.197 756.945 29.015 758.662 Q 28.833 760.378 28.594 761.794 Q 28.354 763.210 27.860 765.201 Q 27.365 767.193 27.013 768.285 Q 26.660 769.376 25.965 771.075 Q 25.270 772.774 24.710 773.887 Q 24.150 775.000 23.656 775.858 Q 23.162 776.716 22.881 777.162 Q 22.599 777.607 22.170 778.246 Q 21.740 778.885 21.199 779.602 Q 20.658 780.319 19.798 781.343 Q 18.938 782.366 18.182 783.176 Q 17.425 783.987 17.090 784.327 Q 16.754 784.667 16.183 785.205 Q 15.611 785.743 14.939 786.325 Q 14.268 786.907 13.881 787.228 Q 13.494 787.549 12.676 788.180 Q 11.859 788.810 11.301 789.204 Q 10.744 789.599 10.142 789.995 Q 9.540 790.390 8.496 791.002 Q 7.452 791.614 6.487 792.123 Q 5.522 792.632 4.726 792.999 Q 3.930 793.366 3.229 793.654 Q 2.528 793.943 0.768 794.552 Q -0.992 795.161 -1.638 795.332 Q -2.285 795.503 -2.719 795.610 Q -3.154 795.718 -4.251 795.949 Q -5.348 796.180 -6.072 796.297 Q -6.797 796.414 -7.333 796.488 Q -7.869 796.562 -8.664 796.647 Q -9.459 796.733 -9.972 796.773 Q -10.486 796.812 -10.950 796.845 Q -11.414 796.878 -13.861 796.935 Q -16.309 796.992 -17.251 796.980 Q -18.192 796.968 -19.047 796.934 Q -19.902 796.899 -20.688 796.863 Q -21.475 796.827 -22.270 796.779 Q -23.065 796.731 -23.310 796.711 Q -23.554 796.690 -24.229 796.643 Q -24.904 796.595 -25.393 796.557 Q -25.882 796.519 -26.358 796.474 Q -26.834 796.429 -27.856 796.319 "></path>
    <path id="STROKE_0b4c97d3-ec48-405a-8649-031d828c4fc1" opacity="1.000" fill="none" stroke="currentColor" stroke-width="3.029" stroke-opacity="1.000" stroke-linecap="round" stroke-linejoin="round" d="M -27.391 794.698 Q -26.455 794.085 -25.860 793.685 Q -25.264 793.285 -25.207 793.247 Q -25.149 793.209 -23.491 792.072 Q -21.833 790.935 -20.542 790.005 Q -19.250 789.074 -18.567 788.573 Q -17.883 788.072 -17.151 787.519 Q -16.418 786.966 -15.977 786.624 Q -15.535 786.282 -14.256 785.280 Q -12.977 784.279 -11.632 783.201 Q -10.287 782.122 -9.528 781.498 Q -8.768 780.874 -7.831 780.099 Q -6.894 779.323 -5.404 778.030 Q -3.914 776.736 -3.198 776.087 Q -2.483 775.438 -2.096 775.086 Q -1.710 774.733 -0.494 773.569 Q 0.722 772.406 1.546 771.585 Q 2.370 770.764 2.869 770.265 Q 3.368 769.766 3.755 769.378 Q 4.143 768.990 5.922 767.133 Q 7.701 765.276 8.644 764.268 Q 9.587 763.260 10.075 762.737 Q 10.563 762.214 11.045 761.685 Q 11.527 761.157 13.584 758.882 "></path>
    <path id="STROKE_7788b360-b94b-4d04-8940-7db073441850" opacity="1.000" fill="none" stroke="currentColor" stroke-width="3.029" stroke-opacity="1.000" stroke-linecap="round" stroke-linejoin="round" d="M -10.787 781.040 Q -9.528 778.453 -9.058 777.475 Q -8.588 776.497 -8.367 776.025 Q -8.146 775.553 -7.421 773.995 Q -6.696 772.437 -6.382 771.740 Q -6.068 771.044 -5.632 770.032 Q -5.196 769.020 -4.421 767.174 Q -3.645 765.328 -2.908 763.520 "></path>
    <path id="STROKE_86fa1aad-3324-425b-a4fd-1951f7add7b9" opacity="1.000" fill="none" stroke="currentColor" stroke-width="3.029" stroke-opacity="1.000" stroke-linecap="round" stroke-linejoin="round" d="M -8.954 782.154 L -8.623 782.146 Q -8.118 782.158 -7.278 782.148 Q -6.437 782.139 -5.637 782.126 Q -4.836 782.113 -4.524 782.113 Q -4.211 782.112 -3.254 782.047 Q -2.296 781.982 -1.573 781.915 Q -0.849 781.848 0.025 781.741 Q 0.898 781.635 3.451 781.047 Q 6.003 780.458 6.814 780.197 Q 7.626 779.936 8.347 779.672 Q 9.068 779.408 9.764 779.130 Q 10.459 778.852 12.639 777.911 "></path>
    <path id="STROKE_674869fc-c364-4393-b0b9-33f6137ed94f" opacity="1.000" fill="none" stroke="currentColor" stroke-width="3.029" stroke-opacity="1.000" stroke-linecap="round" stroke-linejoin="round" d="M 9.313 765.169 Q 9.759 765.014 10.191 764.874 Q 10.622 764.734 11.380 764.482 Q 12.138 764.230 13.493 763.719 Q 14.847 763.207 16.176 762.634 Q 17.506 762.061 18.258 761.685 Q 19.010 761.308 21.435 760.095 "></path>
  </g>
</svg>