<?xml version="1.0" encoding="UTF-8" standalone="yes"?>
<svg xmlns="http://www.w3.org/2000/svg" xmlns:xlink="http://www.w3.org/1999/xlink" width="82.423pt" height="94.499pt" version="1.1" viewBox="-118.010 704.195 82.423 94.499">
  <!--
	Exported with Concepts: Smarter Sketching
	Version: 2024.1.9 on Microsoft Windows NT 10.0.22621.0
	https://concepts.app/
	-->
  <title>Focal Icon</title>
  <desc>Drawing exported from Concepts: Smarter Sketching</desc>
  <defs></defs>
  <g id="Pen" opacity="1.000">
    <path id="STROKE_997a0d4b-b668-4803-a2e8-184c39af0288" opacity="1.000" fill="none" stroke="#000000" stroke-width="2.072" stroke-opacity="1.000" stroke-linecap="round" stroke-linejoin="round" d="M -83.578 745.354 Q -83.673 745.397 -83.550 744.828 Q -83.428 744.259 -83.293 743.934 Q -83.159 743.610 -83.011 743.533 Q -82.863 743.456 -82.682 743.386 Q -82.501 743.315 -82.466 743.313 Q -82.431 743.310 -82.540 743.279 Q -82.648 743.248 -81.473 743.357 Q -80.298 743.467 -79.199 743.738 Q -78.100 744.010 -77.611 744.261 Q -77.122 744.513 -77.078 744.517 Q -77.034 744.521 -76.619 744.859 Q -76.204 745.197 -76.011 745.434 Q -75.818 745.671 -75.647 745.888 Q -75.475 746.104 -75.371 746.340 Q -75.268 746.576 -75.155 746.912 Q -75.043 747.248 -75.056 747.241 Q -75.069 747.234 -75.050 747.246 Q -75.032 747.259 -75.009 747.434 Q -74.986 747.609 -75.002 747.862 Q -75.018 748.114 -75.008 748.037 Q -74.997 747.959 -75.016 748.154 Q -75.035 748.350 -75.157 748.653 Q -75.278 748.957 -75.323 748.998 Q -75.368 749.040 -75.319 748.989 Q -75.271 748.938 -75.620 749.246 Q -75.969 749.553 -76.004 749.521 Q -76.165 749.611 -76.421 749.681 Q -76.677 749.750 -77.001 749.825 Q -77.325 749.899 -77.358 749.897 Q -77.392 749.896 -77.390 749.893 Q -77.388 749.890 -77.577 749.959 Q -77.766 750.029 -77.900 750.063 Q -78.034 750.098 -78.567 749.781 Q -79.100 749.463 -79.430 749.401 Q -79.761 749.339 -79.757 749.368 Q -79.753 749.396 -79.697 749.351 Q -79.641 749.305 -79.996 749.533 Q -79.992 749.466 -79.971 749.359 "></path>
    <path id="STROKE_54058759-fe5a-4cf0-bc97-d868a13ba6b6" opacity="1.000" fill="none" stroke="#000000" stroke-width="2.072" stroke-opacity="1.000" stroke-linecap="round" stroke-linejoin="round" d="M -81.240 739.036 Q -81.741 739.036 -81.563 739.036 Q -82.097 739.043 -81.911 739.049 Q -82.072 739.140 -81.934 739.032 Q -81.797 738.923 -82.342 739.208 Q -82.887 739.492 -83.213 739.712 Q -83.539 739.932 -83.712 740.075 Q -83.885 740.219 -83.815 740.125 Q -83.745 740.030 -83.997 740.276 Q -84.250 740.522 -84.374 740.623 Q -84.498 740.723 -84.662 741.470 Q -84.827 742.218 -84.853 742.539 Q -84.879 742.860 -84.926 743.127 Q -84.972 743.394 -85.001 743.623 Q -85.030 743.852 -85.053 743.713 Q -85.076 743.575 -85.118 744.145 Q -85.160 744.716 -85.114 745.135 Q -85.068 745.555 -84.953 745.900 Q -84.839 746.245 -84.839 746.234 Q -84.840 746.223 -84.822 746.251 Q -84.805 746.280 -84.691 746.546 Q -84.577 746.812 -84.288 747.347 Q -83.999 747.882 -83.531 748.205 Q -83.063 748.527 -82.672 748.821 Q -82.280 749.115 -81.911 749.367 Q -81.541 749.620 -81.614 749.582 Q -81.688 749.543 -81.092 749.918 Q -80.496 750.293 -79.956 750.582 Q -79.416 750.872 -79.041 751.108 Q -78.667 751.344 -78.648 751.358 Q -78.629 751.373 -78.494 751.407 Q -78.359 751.442 -78.106 751.612 Q -77.852 751.783 -75.742 751.075 "></path>
    <path id="STROKE_0232bedb-05dd-48e4-8c21-f83a96454d57" opacity="1.000" fill="none" stroke="#000000" stroke-width="2.072" stroke-opacity="1.000" stroke-linecap="round" stroke-linejoin="round" d="M -84.200 738.265 Q -84.385 738.269 -84.386 738.265 Q -84.500 738.319 -84.697 738.402 Q -84.697 738.414 -84.722 738.464 Q -84.734 738.464 -84.747 738.439 Q -84.716 738.159 -84.710 738.203 Q -84.729 738.305 -84.721 738.268 Q -84.712 738.231 -84.679 738.055 Q -84.647 737.879 -84.615 737.763 Q -84.584 737.648 -84.506 737.381 Q -84.428 737.114 -84.424 737.121 Q -84.135 736.494 -84.225 736.686 Q -84.235 736.819 -84.168 736.532 Q -84.100 736.246 -83.582 735.820 Q -83.064 735.393 -82.841 735.319 Q -82.618 735.244 -82.065 735.257 Q -81.512 735.270 -81.227 735.317 Q -80.943 735.365 -80.412 735.422 Q -79.881 735.479 -79.449 735.461 Q -79.016 735.443 -78.551 735.520 Q -78.085 735.596 -77.547 735.840 Q -77.009 736.084 -76.450 736.486 Q -75.891 736.888 -75.447 737.277 Q -75.003 737.666 -74.647 737.979 Q -74.291 738.292 -74.119 738.461 Q -73.947 738.629 -73.912 738.664 Q -73.876 738.698 -73.706 738.923 Q -73.536 739.148 -73.655 738.917 Q -73.773 738.686 -72.749 740.043 Q -71.725 741.400 -71.383 741.911 Q -71.041 742.422 -70.462 743.745 Q -69.883 745.068 -69.591 746.167 Q -69.299 747.267 -69.235 748.599 Q -69.171 749.932 -69.764 751.292 Q -70.358 752.653 -70.858 753.343 Q -71.358 754.034 -71.773 754.463 Q -72.188 754.892 -72.360 755.064 Q -72.532 755.236 -72.832 755.030 "></path>
    <path id="STROKE_eefdd84e-f939-4e69-b2ab-ab207ed4db00" opacity="1.000" fill="none" stroke="#000000" stroke-width="2.072" stroke-opacity="1.000" stroke-linecap="round" stroke-linejoin="round" d="M -68.753 751.448 Q -68.444 751.888 -68.529 751.822 Q -68.485 751.671 -68.246 752.518 Q -68.006 753.364 -68.186 754.448 Q -68.366 755.532 -68.870 756.333 Q -69.374 757.134 -69.711 757.502 Q -70.048 757.870 -70.603 758.311 Q -71.158 758.751 -71.694 759.025 Q -72.230 759.299 -72.634 759.436 Q -73.038 759.574 -73.577 759.749 Q -74.115 759.923 -75.328 759.841 Q -76.540 759.758 -77.529 759.432 Q -78.517 759.105 -79.027 758.896 Q -79.538 758.687 -79.871 758.545 Q -80.205 758.403 -80.755 758.102 Q -81.306 757.800 -81.590 757.613 Q -81.875 757.425 -82.157 757.294 Q -82.439 757.164 -83.136 756.479 Q -83.833 755.794 -84.209 755.394 Q -84.584 754.994 -84.731 754.814 Q -84.878 754.633 -85.024 754.407 Q -85.170 754.181 -85.165 754.138 Q -85.159 754.094 -85.355 753.932 Q -85.551 753.769 -85.955 752.359 Q -86.358 750.949 -86.388 750.110 Q -86.417 749.271 -86.445 748.815 Q -86.473 748.358 -86.344 746.839 Q -86.216 745.320 -86.074 743.944 Q -85.932 742.568 -83.976 740.703 "></path>
    <path id="STROKE_a99d3f19-8960-45c2-a00f-424264ff1f48" opacity="1.000" fill="none" stroke="#000000" stroke-width="2.072" stroke-opacity="1.000" stroke-linecap="round" stroke-linejoin="round" d="M -87.981 748.066 Q -88.286 748.032 -88.195 748.092 Q -88.104 748.152 -88.240 747.982 Q -88.376 747.811 -88.477 747.629 Q -88.579 747.447 -88.635 747.345 Q -88.691 747.242 -88.917 746.889 Q -89.142 746.536 -89.068 746.631 Q -88.995 746.727 -89.289 746.341 Q -89.582 745.956 -90.030 745.502 Q -90.477 745.048 -91.021 744.361 Q -91.564 743.675 -91.876 742.454 Q -92.188 741.234 -92.184 740.675 Q -92.180 740.117 -92.048 739.369 Q -91.916 738.622 -91.292 737.362 Q -90.669 736.102 -89.827 735.237 Q -88.985 734.373 -88.354 734.148 Q -87.724 733.923 -86.613 733.138 Q -85.502 732.353 -84.497 731.799 Q -83.493 731.245 -82.737 731.434 Q -81.982 731.622 -80.864 731.698 Q -79.746 731.774 -79.139 731.643 Q -78.531 731.511 -77.733 732.087 Q -76.934 732.662 -76.444 733.365 Q -75.955 734.067 -75.774 734.571 Q -75.594 735.074 -75.527 735.204 Q -75.459 735.334 -74.950 736.586 Q -74.440 737.838 -74.399 739.857 "></path>
    <path id="STROKE_5e059912-ba60-4442-8b9e-e611a260fc28" opacity="1.000" fill="none" stroke="#000000" stroke-width="2.072" stroke-opacity="1.000" stroke-linecap="round" stroke-linejoin="round" d="M -75.419 731.723 Q -75.439 731.732 -75.662 731.388 Q -75.885 731.045 -75.887 730.824 Q -75.889 730.603 -75.707 730.314 Q -75.526 730.025 -75.488 730.012 Q -75.449 729.999 -75.434 730.031 Q -75.419 730.062 -75.343 729.908 Q -75.266 729.754 -73.627 729.662 Q -71.988 729.570 -71.057 729.736 Q -70.126 729.902 -69.302 730.088 Q -68.477 730.274 -66.742 731.540 Q -65.007 732.806 -63.803 733.739 Q -62.598 734.671 -61.513 735.788 Q -60.428 736.904 -59.906 738.778 Q -59.384 740.653 -59.205 742.374 Q -59.027 744.095 -58.938 745.926 Q -58.850 747.757 -58.949 748.692 Q -59.048 749.627 -59.151 750.173 Q -59.255 750.720 -59.328 751.004 Q -59.401 751.289 -59.570 751.722 Q -59.739 752.156 -59.874 752.469 Q -60.009 752.783 -60.011 752.957 Q -60.013 753.130 -60.629 754.059 Q -61.246 754.988 -61.750 755.663 Q -62.254 756.339 -63.053 757.193 Q -63.852 758.047 -64.358 758.406 Q -64.864 758.766 -65.206 758.933 Q -65.549 759.100 -66.341 759.102 Q -67.133 759.104 -67.597 758.928 Q -68.061 758.752 -71.713 758.936 "></path>
    <path id="STROKE_cc070200-3ede-4151-a787-5db1acd96547" opacity="1.000" fill="none" stroke="#000000" stroke-width="2.072" stroke-opacity="1.000" stroke-linecap="round" stroke-linejoin="round" d="M -64.649 758.538 Q -64.575 759.063 -64.574 758.973 Q -64.484 758.973 -64.567 760.013 Q -64.650 761.053 -65.014 761.747 Q -65.379 762.441 -66.065 763.447 Q -66.752 764.452 -68.382 765.343 Q -70.011 766.234 -71.395 766.713 Q -72.778 767.193 -73.640 767.433 Q -74.501 767.674 -75.757 768.019 Q -77.013 768.364 -79.301 768.068 Q -81.590 767.772 -82.934 767.487 Q -84.279 767.203 -84.952 767.004 Q -85.624 766.806 -86.608 766.076 Q -87.592 765.347 -88.104 764.731 Q -88.616 764.115 -88.855 763.712 Q -89.094 763.308 -89.317 762.862 Q -89.539 762.416 -89.833 761.634 Q -90.127 760.852 -90.837 758.918 Q -91.547 756.984 -91.928 755.101 Q -92.310 753.219 -92.213 751.622 Q -92.116 750.026 -91.917 748.895 Q -91.718 747.765 -89.697 746.523 "></path>
    <path id="STROKE_f77c3053-2b2a-4a80-8c85-25cf84cb6e70" opacity="1.000" fill="none" stroke="#000000" stroke-width="2.072" stroke-opacity="1.000" stroke-linecap="round" stroke-linejoin="round" d="M -92.881 754.234 Q -93.410 754.121 -93.304 754.147 Q -93.092 754.144 -94.760 753.721 Q -96.428 753.298 -97.366 752.689 Q -98.305 752.080 -98.617 751.648 Q -98.930 751.216 -99.078 750.919 Q -99.227 750.623 -99.406 750.296 Q -99.585 749.970 -99.876 749.425 Q -100.167 748.881 -100.295 748.589 Q -100.423 748.298 -100.804 747.562 Q -101.186 746.827 -101.439 745.960 Q -101.693 745.093 -101.795 743.967 Q -101.897 742.840 -101.781 740.719 Q -101.666 738.597 -101.463 737.069 Q -101.259 735.541 -100.830 734.127 Q -100.400 732.714 -99.946 731.659 Q -99.492 730.605 -98.752 729.283 Q -98.011 727.960 -97.453 727.015 Q -96.895 726.071 -94.538 725.059 Q -92.180 724.047 -90.253 723.375 Q -88.326 722.704 -86.621 722.433 Q -84.917 722.163 -83.111 722.028 Q -81.305 721.894 -79.922 721.905 Q -78.538 721.917 -77.274 722.466 Q -76.010 723.015 -74.570 723.668 Q -73.129 724.321 -72.125 724.677 Q -71.120 725.032 -70.386 725.908 Q -69.652 726.784 -69.312 729.398 Q -69.288 729.398 -69.225 729.360 "></path>
    <path id="STROKE_4797b869-2a7a-4223-b6cf-d4420c372aae" opacity="1.000" fill="none" stroke="#000000" stroke-width="2.072" stroke-opacity="1.000" stroke-linecap="round" stroke-linejoin="round" d="M -71.588 724.186 Q -71.670 724.210 -72.144 724.077 Q -72.619 723.945 -72.786 723.739 Q -72.953 723.533 -72.953 723.499 Q -72.953 723.464 -72.945 723.444 Q -72.937 723.423 -72.949 723.464 Q -72.962 723.504 -72.965 723.339 Q -72.969 723.173 -72.884 722.867 Q -72.799 722.560 -72.801 722.548 Q -72.802 722.537 -72.365 722.314 Q -71.928 722.092 -71.685 722.041 Q -71.442 721.991 -71.330 721.967 Q -71.218 721.943 -70.850 721.855 Q -70.482 721.766 -70.182 721.681 Q -69.883 721.596 -69.870 721.634 Q -69.857 721.671 -69.580 721.519 Q -69.304 721.367 -68.255 721.262 Q -67.207 721.158 -66.048 721.516 Q -64.889 721.874 -63.714 722.338 Q -62.539 722.802 -61.410 723.641 Q -60.282 724.481 -59.278 726.055 Q -58.275 727.629 -57.217 729.356 Q -56.159 731.084 -55.636 732.660 Q -55.113 734.237 -54.832 735.211 Q -54.550 736.185 -53.988 737.539 Q -53.425 738.893 -52.995 741.931 Q -52.566 744.969 -52.521 747.064 Q -52.476 749.159 -52.552 750.300 Q -52.629 751.440 -52.984 753.152 Q -53.340 754.864 -54.203 756.787 Q -55.065 758.711 -55.896 759.971 Q -56.727 761.232 -57.227 762.052 Q -57.727 762.872 -58.375 764.132 Q -59.023 765.391 -60.067 766.429 Q -61.111 767.467 -61.745 767.931 Q -62.380 768.395 -63.352 768.926 Q -64.325 769.458 -64.909 769.748 Q -65.493 770.039 -65.884 770.247 Q -66.274 770.455 -66.457 770.568 Q -66.640 770.682 -66.862 770.851 Q -67.084 771.020 -67.329 771.188 Q -67.573 771.356 -67.642 771.348 Q -67.712 771.341 -68.379 771.766 Q -69.046 772.192 -71.022 771.553 Q -72.998 770.914 -74.996 769.880 "></path>
    <path id="STROKE_c68a96be-806c-4920-b389-bdbb6efdce4f" opacity="1.000" fill="none" stroke="#000000" stroke-width="2.072" stroke-opacity="1.000" stroke-linecap="round" stroke-linejoin="round" d="M -65.345 771.024 Q -65.345 771.000 -65.345 770.937 Q -65.345 770.962 -65.345 770.975 Q -65.358 770.975 -65.382 770.950 Q -65.510 771.341 -65.725 772.016 Q -65.940 772.692 -66.137 772.969 Q -66.334 773.247 -66.590 773.465 Q -66.846 773.684 -66.975 773.780 Q -67.103 773.875 -67.074 773.845 Q -67.045 773.815 -67.157 773.914 Q -67.269 774.012 -67.541 774.234 Q -67.812 774.455 -67.888 774.521 Q -67.963 774.588 -68.113 774.707 Q -68.262 774.827 -68.220 774.807 Q -68.177 774.788 -69.469 775.478 Q -70.761 776.168 -72.349 776.940 Q -73.938 777.711 -76.090 778.114 Q -78.242 778.516 -80.118 778.775 Q -81.994 779.033 -83.599 778.824 Q -85.204 778.616 -86.224 778.558 Q -87.243 778.500 -89.565 777.392 Q -91.887 776.285 -93.693 775.078 Q -95.500 773.872 -96.178 773.160 Q -96.855 772.449 -97.230 772.164 Q -97.605 771.879 -98.702 769.875 Q -99.798 767.872 -100.832 765.492 Q -101.866 763.113 -102.451 762.108 Q -103.035 761.103 -103.184 758.880 Q -103.333 756.657 -103.451 754.990 Q -103.568 753.323 -102.557 749.881 "></path>
    <path id="STROKE_3c8ec109-e37a-47c5-aa81-3e69b3752db5" opacity="1.000" fill="none" stroke="#000000" stroke-width="2.072" stroke-opacity="1.000" stroke-linecap="round" stroke-linejoin="round" d="M -104.099 753.563 Q -104.347 753.315 -104.335 753.326 Q -104.653 753.007 -104.621 753.016 Q -104.671 752.760 -105.487 751.408 Q -106.304 750.056 -107.070 748.369 Q -107.836 746.683 -108.136 745.285 Q -108.435 743.888 -108.446 743.110 Q -108.457 742.332 -108.419 740.781 Q -108.381 739.231 -108.084 737.258 Q -107.788 735.284 -106.800 733.098 Q -105.812 730.912 -105.252 730.000 Q -104.693 729.088 -104.324 728.499 Q -103.955 727.910 -102.847 726.584 Q -101.739 725.258 -100.146 723.740 Q -98.553 722.222 -96.039 720.619 Q -93.524 719.016 -92.094 718.292 Q -90.665 717.567 -90.074 717.162 Q -89.483 716.757 -88.449 716.355 Q -87.415 715.953 -86.532 715.809 Q -85.649 715.664 -84.371 715.300 Q -83.094 714.935 -81.724 715.094 Q -80.354 715.252 -79.424 715.480 Q -78.494 715.707 -77.587 716.007 Q -76.680 716.307 -76.259 716.599 Q -75.839 716.891 -75.434 717.256 Q -75.029 717.622 -73.650 718.355 Q -72.272 719.089 -71.481 719.499 Q -70.691 719.910 -70.088 720.840 Q -69.484 721.770 -69.298 722.429 Q -69.111 723.088 -68.206 724.883 "></path>
    <path id="STROKE_749fb7b4-d693-4848-9c9d-1fea437f4d9d" opacity="1.000" fill="none" stroke="#000000" stroke-width="2.072" stroke-opacity="1.000" stroke-linecap="round" stroke-linejoin="round" d="M -75.668 716.649 Q -75.704 716.578 -75.723 716.318 Q -75.742 716.057 -75.715 716.018 Q -75.689 715.978 -75.716 716.079 Q -75.744 716.181 -75.615 715.670 Q -75.486 715.158 -75.272 714.789 Q -75.057 714.419 -74.797 714.274 Q -74.537 714.129 -74.626 714.088 Q -74.714 714.046 -72.851 713.939 Q -70.988 713.832 -69.810 713.768 Q -68.632 713.703 -66.404 714.771 Q -64.177 715.839 -62.712 716.665 Q -61.247 717.491 -59.511 719.413 Q -57.775 721.335 -56.507 723.128 Q -55.239 724.920 -54.575 725.720 Q -53.911 726.521 -52.650 728.209 Q -51.389 729.898 -49.985 732.689 Q -48.581 735.480 -47.576 737.785 Q -46.571 740.091 -46.079 742.136 Q -45.587 744.181 -45.348 745.439 Q -45.109 746.697 -44.896 748.394 Q -44.684 750.091 -44.777 751.879 Q -44.870 753.668 -45.399 755.562 Q -45.929 757.457 -46.485 758.486 Q -47.041 759.515 -47.420 760.068 Q -47.799 760.622 -48.923 762.297 Q -50.047 763.973 -51.099 765.027 Q -52.151 766.082 -54.299 767.188 Q -56.446 768.294 -58.132 768.988 Q -59.819 769.681 -61.216 770.054 "></path>
    <path id="STROKE_715a4e0f-932c-4401-8a3c-39dd74152dd8" opacity="1.000" fill="none" stroke="#000000" stroke-width="2.072" stroke-opacity="1.000" stroke-linecap="round" stroke-linejoin="round" d="M -48.953 766.895 Q -49.011 766.536 -49.062 768.206 Q -49.113 769.877 -49.396 771.204 Q -49.679 772.531 -49.955 773.435 Q -50.231 774.338 -51.494 775.970 Q -52.757 777.603 -53.411 778.460 Q -54.064 779.317 -54.465 779.655 Q -54.866 779.993 -55.329 780.350 Q -55.791 780.708 -56.055 781.141 Q -56.319 781.573 -56.569 781.823 Q -56.818 782.072 -57.280 782.638 Q -57.741 783.203 -58.714 784.074 Q -59.686 784.946 -60.181 785.289 Q -60.676 785.633 -60.932 785.788 Q -61.189 785.943 -62.964 786.659 Q -64.740 787.376 -66.734 788.197 Q -68.728 789.019 -71.203 789.063 Q -73.677 789.107 -75.373 788.752 Q -77.068 788.397 -78.746 788.414 Q -80.424 788.432 -82.492 787.880 Q -84.561 787.327 -85.816 786.806 Q -87.071 786.285 -88.054 785.313 Q -89.037 784.342 -89.642 783.687 Q -90.246 783.031 -91.428 782.297 Q -92.610 781.562 -93.861 779.778 Q -95.111 777.994 -96.231 776.025 Q -97.352 774.057 -98.055 772.069 "></path>
    <path id="STROKE_7a380178-0750-489c-821a-2292fb0462dc" opacity="1.000" fill="none" stroke="#000000" stroke-width="2.072" stroke-opacity="1.000" stroke-linecap="round" stroke-linejoin="round" d="M -95.891 777.765 Q -95.896 777.772 -95.866 778.387 Q -95.853 778.387 -95.841 778.387 L -95.841 778.375 Q -95.841 778.387 -95.803 778.735 Q -95.791 778.735 -95.766 778.760 Q -95.766 778.748 -95.692 778.735 Q -95.704 778.723 -95.716 778.686 Q -96.487 778.206 -96.365 778.278 Q -96.243 778.350 -96.415 778.206 Q -96.588 778.061 -96.598 778.074 Q -96.608 778.087 -97.414 777.323 Q -98.219 776.560 -99.239 775.831 Q -100.258 775.101 -100.861 774.757 Q -101.463 774.412 -103.085 772.895 Q -104.706 771.377 -105.591 770.516 Q -106.477 769.655 -106.741 769.522 Q -107.005 769.389 -107.875 768.240 Q -108.745 767.092 -109.354 766.085 Q -109.962 765.079 -110.548 764.092 Q -111.134 763.106 -111.543 762.370 Q -111.953 761.634 -112.622 760.143 Q -113.290 758.652 -113.637 757.752 Q -113.984 756.852 -114.222 756.042 Q -114.460 755.232 -114.659 754.565 Q -114.857 753.898 -114.973 753.052 Q -115.088 752.206 -115.268 750.901 Q -115.448 749.595 -115.545 746.892 Q -115.642 744.189 -115.360 741.493 Q -115.077 738.796 -114.737 737.106 Q -114.397 735.415 -113.834 734.062 Q -113.272 732.710 -112.651 731.811 Q -112.029 730.912 -110.934 729.661 Q -109.840 728.411 -109.257 727.699 Q -108.674 726.987 -107.703 725.846 Q -106.733 724.704 -106.323 724.327 Q -105.912 723.950 -105.321 723.503 Q -104.730 723.057 -104.408 722.850 Q -104.086 722.642 -103.769 722.473 Q -103.453 722.303 -103.130 722.154 Q -102.807 722.005 -102.456 721.835 Q -102.104 721.665 -101.825 721.539 Q -101.545 721.414 -101.299 721.317 Q -101.054 721.220 -101.004 721.205 Q -100.953 721.190 -100.987 721.197 Q -101.022 721.204 -100.531 721.032 Q -100.039 720.861 -99.596 720.732 Q -99.153 720.602 -98.759 720.459 Q -98.365 720.315 -98.216 720.247 Q -98.067 720.179 -97.991 720.132 Q -97.916 720.086 -98.096 720.175 Q -98.276 720.264 -96.313 719.498 Q -96.276 719.535 -96.239 719.585 "></path>
    <path id="STROKE_4c021f4e-9d23-4aac-8e35-8aaff620f5bb" opacity="1.000" fill="none" stroke="#000000" stroke-width="2.072" stroke-opacity="1.000" stroke-linecap="round" stroke-linejoin="round" d="M -104.895 721.027 Q -104.886 720.398 -104.883 720.592 Q -104.757 720.058 -104.758 720.095 Q -104.620 719.398 -103.789 717.820 Q -102.958 716.241 -101.710 715.192 Q -100.462 714.142 -99.683 713.562 Q -98.904 712.982 -97.743 712.172 Q -96.583 711.361 -94.061 710.323 Q -91.540 709.285 -88.225 708.424 Q -84.910 707.563 -82.634 707.212 Q -80.359 706.860 -79.272 706.736 Q -78.185 706.613 -76.666 706.667 Q -75.147 706.721 -73.730 706.821 Q -72.313 706.921 -70.383 707.400 Q -68.453 707.879 -66.775 708.131 Q -65.096 708.383 -64.142 708.588 Q -63.187 708.792 -62.890 708.938 Q -62.593 709.085 -61.355 709.816 Q -60.117 710.547 -59.363 710.990 Q -58.608 711.433 -57.896 711.805 Q -57.183 712.177 -55.467 713.869 Q -53.751 715.560 -52.568 717.344 Q -51.385 719.128 -50.450 720.861 Q -49.514 722.594 -49.003 723.352 Q -48.493 724.110 -48.260 724.745 Q -48.026 725.381 -47.655 726.463 Q -47.283 727.545 -47.124 728.422 Q -46.966 729.299 -46.946 729.906 Q -46.927 730.513 -47.007 731.032 Q -47.088 731.551 -47.096 731.659 Q -47.104 731.766 -47.143 732.032 Q -47.182 732.299 -47.199 732.306 Q -47.215 732.313 -47.210 732.573 Q -47.204 732.832 -48.406 736.275 Q -48.266 736.087 -48.257 736.076 "></path>
    <path id="STROKE_79ce7ba4-19ae-4b15-8cf2-69ab972a8ae0" opacity="1.000" fill="none" stroke="#000000" stroke-width="2.072" stroke-opacity="1.000" stroke-linecap="round" stroke-linejoin="round" d="M -49.326 721.351 Q -49.314 721.351 -49.301 721.351 Q -49.046 722.147 -49.075 722.000 Q -49.103 721.852 -48.936 722.010 Q -48.769 722.167 -48.854 722.045 Q -48.939 721.922 -48.097 722.770 Q -47.254 723.619 -46.360 724.898 Q -45.465 726.177 -44.756 727.160 Q -44.047 728.144 -43.086 730.028 Q -42.125 731.911 -41.182 735.120 Q -40.239 738.328 -39.736 740.052 Q -39.233 741.775 -38.780 744.820 Q -38.327 747.864 -38.151 751.040 Q -37.975 754.216 -38.096 756.620 Q -38.216 759.024 -38.341 760.287 Q -38.466 761.550 -38.480 762.264 Q -38.495 762.977 -38.618 764.993 Q -38.741 767.008 -39.326 769.859 Q -39.911 772.709 -40.274 774.039 Q -40.637 775.369 -40.849 776.138 Q -41.061 776.907 -41.389 777.534 Q -41.718 778.161 -42.137 778.890 Q -42.557 779.619 -44.019 781.107 Q -45.482 782.596 -46.972 783.886 Q -48.462 785.176 -49.280 785.680 Q -50.097 786.184 -50.603 786.477 Q -51.109 786.770 -51.406 786.932 Q -51.703 787.094 -51.894 787.178 Q -52.086 787.262 -52.319 787.357 Q -52.552 787.452 -52.752 787.531 Q -52.953 787.609 -53.172 787.700 Q -53.391 787.791 -53.404 787.803 Q -53.418 787.814 -53.654 787.908 Q -53.890 788.002 -54.043 788.058 Q -54.197 788.113 -54.770 788.337 Q -55.342 788.561 -55.896 788.791 Q -56.451 789.021 -56.714 789.139 Q -56.977 789.258 -57.239 789.367 Q -57.501 789.476 -57.727 789.580 Q -57.954 789.685 -58.079 789.724 Q -58.203 789.763 -58.587 789.797 Q -58.971 789.830 -59.221 789.838 Q -59.472 789.847 -59.694 789.892 Q -59.915 789.937 -59.881 789.921 Q -59.847 789.906 -60.151 789.958 Q -60.455 790.010 -60.916 790.317 Q -61.377 790.624 -62.595 790.492 Q -63.814 790.360 -64.568 790.075 Q -65.321 789.790 -65.710 789.701 Q -66.098 789.612 -66.365 789.456 "></path>
    <path id="STROKE_10006b2f-8a2d-4c89-9591-1068efb74037" opacity="1.000" fill="none" stroke="#000000" stroke-width="2.072" stroke-opacity="1.000" stroke-linecap="round" stroke-linejoin="round" d="M -99.995 775.626 L -99.995 775.614 Q -100.101 776.041 -100.082 775.974 Q -100.094 776.010 -100.166 776.234 Q -100.238 776.459 -100.251 776.489 Q -100.264 776.519 -100.241 776.432 Q -100.218 776.346 -100.498 777.133 Q -100.778 777.919 -101.198 778.802 Q -101.618 779.686 -101.662 779.802 Q -101.706 779.918 -101.914 780.265 Q -102.122 780.612 -102.911 782.209 Q -103.699 783.805 -103.946 784.513 Q -104.194 785.221 -104.391 785.710 Q -104.588 786.198 -104.895 787.276 Q -105.202 788.353 -105.358 789.010 Q -105.514 789.667 -105.587 789.816 Q -105.659 789.965 -105.743 790.197 Q -105.827 790.430 -105.881 790.740 Q -105.934 791.051 -106.073 791.449 Q -106.213 791.846 -106.428 792.216 Q -106.643 792.586 -106.577 792.468 Q -106.510 792.349 -106.661 792.560 Q -106.812 792.771 -106.910 793.361 Q -106.897 793.361 -106.736 793.436 "></path>
    <path id="STROKE_4ab037a3-fdd9-4491-b4c0-0a6cfac2b375" opacity="1.000" fill="none" stroke="#000000" stroke-width="2.072" stroke-opacity="1.000" stroke-linecap="round" stroke-linejoin="round" d="M -92.508 783.859 Q -92.611 783.914 -92.334 783.586 Q -92.387 783.845 -92.394 783.841 Q -92.401 783.836 -92.397 783.836 Q -92.393 783.835 -92.396 783.833 Q -92.398 783.831 -92.381 783.802 Q -92.363 783.773 -92.592 784.113 Q -92.820 784.452 -92.888 784.639 Q -92.955 784.825 -93.075 785.117 Q -93.194 785.409 -93.210 785.453 Q -93.227 785.497 -93.341 785.764 Q -93.456 786.031 -93.392 785.846 Q -93.328 785.661 -93.532 786.188 Q -93.737 786.715 -94.235 788.047 Q -94.733 789.380 -94.977 789.898 Q -95.222 790.416 -95.280 790.549 Q -95.337 790.681 -95.688 791.622 Q -96.039 792.562 -96.151 792.889 Q -96.264 793.216 -96.426 793.689 Q -96.588 794.162 -96.641 794.274 Q -96.694 794.387 -96.662 794.294 Q -96.856 794.669 -96.811 794.543 Q -96.775 794.462 -96.827 794.547 Q -96.879 794.631 -96.832 794.554 Q -96.786 794.477 -96.799 794.497 Q -96.812 794.517 -96.800 794.497 Q -96.788 794.478 -96.835 794.557 Q -96.883 794.636 -97.070 794.958 Q -97.258 795.281 -97.239 795.277 Q -97.220 795.273 -97.207 795.220 Q -97.194 795.167 -97.285 795.410 Q -97.375 795.654 -97.435 795.773 Q -97.496 795.891 -97.445 795.787 Q -97.429 795.715 -97.781 796.272 Q -97.738 796.115 -97.458 795.824 "></path>
  </g>
</svg>