<?xml version="1.0" encoding="UTF-8" standalone="yes"?>
<svg xmlns="http://www.w3.org/2000/svg" xmlns:xlink="http://www.w3.org/1999/xlink" width="54.756pt" height="57.747pt" version="1.1" viewBox="-59.363 709.638 54.756 57.747">
  <!--
	Exported with Concepts: Smarter Sketching
	Version: 2024.1.9 on Microsoft Windows NT 10.0.22621.0
	https://concepts.app/
	-->
  <title>Secondary Icon</title>
  <desc>Drawing exported from Concepts: Smarter Sketching</desc>
  <defs></defs>
  <g id="Pen" opacity="1.000">
    <path id="STROKE_0614379c-5b2b-445a-a24b-43ccfbbdb091" opacity="1.000" fill="none" stroke="#000000" stroke-width="2.029" stroke-opacity="1.000" stroke-linecap="round" stroke-linejoin="round" d="M -41.002 756.583 Q -41.130 756.388 -41.281 756.167 Q -41.432 755.947 -41.559 755.769 Q -41.686 755.591 -41.829 755.395 Q -41.972 755.200 -42.302 754.750 Q -42.632 754.301 -43.045 753.780 Q -43.458 753.258 -43.901 752.753 Q -44.343 752.247 -44.894 751.672 Q -45.445 751.097 -45.775 750.777 Q -46.105 750.457 -46.392 750.190 Q -46.678 749.924 -47.351 749.330 Q -48.024 748.737 -49.111 747.795 "></path>
    <path id="STROKE_cb7a6610-4f21-4f45-9ce2-189ef5243007" opacity="1.000" fill="none" stroke="#000000" stroke-width="2.029" stroke-opacity="1.000" stroke-linecap="round" stroke-linejoin="round" d="M -49.783 747.802 Q -50.198 747.933 -50.895 748.112 Q -51.592 748.292 -51.980 748.368 Q -52.368 748.444 -52.638 748.480 Q -52.907 748.517 -53.360 748.531 Q -53.814 748.546 -54.077 748.525 Q -54.340 748.503 -54.559 748.465 Q -54.778 748.426 -55.057 748.341 Q -55.336 748.257 -55.515 748.184 Q -55.694 748.112 -55.826 748.043 Q -55.959 747.974 -56.150 747.841 Q -56.340 747.708 -56.454 747.607 Q -56.568 747.506 -56.684 747.375 Q -56.799 747.245 -56.963 746.967 Q -57.127 746.689 -57.157 746.609 Q -57.186 746.529 -57.239 746.262 Q -57.292 745.994 -57.283 745.759 Q -57.275 745.524 -57.252 745.408 Q -57.230 745.292 -57.111 745.003 Q -56.992 744.714 -56.921 744.603 Q -56.850 744.492 -56.746 744.367 Q -56.643 744.242 -56.559 744.162 Q -56.476 744.082 -56.219 743.908 Q -55.962 743.734 -55.664 743.616 Q -55.365 743.497 -55.314 743.487 Q -55.264 743.476 -55.039 743.435 Q -54.815 743.395 -54.536 743.388 Q -54.258 743.381 -53.975 743.414 Q -53.692 743.447 -53.551 743.476 Q -53.410 743.505 -53.288 743.543 Q -53.167 743.580 -53.095 743.601 Q -53.023 743.623 -52.890 743.676 Q -52.757 743.730 -52.507 743.853 Q -52.258 743.977 -51.874 744.245 Q -51.490 744.514 -51.232 744.737 Q -50.974 744.960 -50.765 745.168 Q -50.557 745.376 -50.484 745.457 Q -50.410 745.539 -50.325 745.630 Q -50.240 745.722 -50.062 745.932 Q -49.884 746.142 -49.668 746.415 L -49.388 746.734 "></path>
    <path id="STROKE_438d0f88-c0aa-4bef-8607-eb7f9a2a84fc" opacity="1.000" fill="none" stroke="#000000" stroke-width="2.029" stroke-opacity="1.000" stroke-linecap="round" stroke-linejoin="round" d="M -50.053 747.090 Q -50.082 746.551 -50.082 746.484 Q -50.082 746.417 -50.084 746.135 Q -50.087 745.853 -50.084 745.668 Q -50.081 745.483 -50.041 744.931 Q -50.002 744.380 -49.863 743.740 Q -49.724 743.101 -49.571 742.722 Q -49.418 742.342 -49.206 742.015 Q -48.993 741.688 -48.851 741.532 Q -48.709 741.377 -48.510 741.216 Q -48.311 741.056 -48.204 740.992 Q -48.097 740.929 -47.848 740.834 Q -47.599 740.740 -47.421 740.706 Q -47.243 740.672 -47.063 740.667 Q -46.884 740.663 -46.545 740.714 Q -46.207 740.765 -45.987 740.859 Q -45.767 740.952 -45.569 741.081 Q -45.371 741.209 -45.139 741.441 Q -44.907 741.673 -44.785 741.857 Q -44.662 742.042 -44.567 742.258 Q -44.471 742.474 -44.407 742.732 Q -44.344 742.990 -44.340 743.331 Q -44.335 743.672 -44.397 743.951 Q -44.459 744.230 -44.630 744.589 Q -44.801 744.947 -45.007 745.219 Q -45.213 745.491 -45.368 745.646 Q -45.523 745.802 -45.800 746.013 Q -46.077 746.224 -46.175 746.287 Q -46.273 746.349 -46.546 746.494 Q -46.819 746.639 -47.281 746.814 Q -47.743 746.990 -47.884 747.033 Q -48.024 747.076 -48.197 747.118 Q -48.369 747.160 -48.599 747.203 Q -48.828 747.245 -49.049 747.281 Q -49.271 747.316 -49.381 747.329 Q -49.492 747.341 -50.034 747.413 "></path>
    <path id="STROKE_88ef7485-30d9-4704-8727-c4803a2462f7" opacity="1.000" fill="none" stroke="#000000" stroke-width="2.029" stroke-opacity="1.000" stroke-linecap="round" stroke-linejoin="round" d="M -50.758 748.487 Q -50.900 748.629 -51.154 748.896 Q -51.409 749.164 -51.771 749.570 Q -52.134 749.975 -52.343 750.256 Q -52.553 750.537 -52.719 750.811 Q -52.886 751.085 -53.130 751.674 Q -53.373 752.262 -53.444 752.588 Q -53.514 752.913 -53.527 753.253 Q -53.540 753.592 -53.464 754.006 Q -53.389 754.420 -53.320 754.592 Q -53.251 754.764 -53.130 754.964 Q -53.009 755.163 -52.873 755.309 Q -52.737 755.454 -52.541 755.582 Q -52.344 755.710 -52.218 755.763 Q -52.091 755.815 -51.948 755.849 Q -51.805 755.883 -51.524 755.887 Q -51.243 755.891 -51.090 755.861 Q -50.938 755.831 -50.795 755.781 Q -50.651 755.730 -50.523 755.666 Q -50.395 755.602 -50.296 755.539 Q -50.197 755.475 -50.032 755.327 Q -49.866 755.178 -49.680 754.942 Q -49.495 754.705 -49.353 754.440 Q -49.211 754.175 -49.169 754.080 Q -49.128 753.984 -49.052 753.761 Q -48.977 753.538 -48.947 753.420 Q -48.917 753.301 -48.891 753.189 Q -48.866 753.077 -48.822 752.739 Q -48.779 752.401 -48.775 751.990 Q -48.771 751.579 -48.858 750.889 Q -48.944 750.199 -49.028 749.830 Q -49.112 749.462 -49.200 749.148 Q -49.288 748.834 -49.388 748.529 Q -49.489 748.225 -49.593 747.948 Q -49.696 747.672 -49.744 747.512 "></path>
    <path id="STROKE_ed084c48-90df-42cd-9038-9e15d8bd5a43" opacity="1.000" fill="none" stroke="#000000" stroke-width="2.029" stroke-opacity="1.000" stroke-linecap="round" stroke-linejoin="round" d="M -43.087 765.312 Q -42.860 764.235 -42.769 763.815 Q -42.679 763.395 -42.504 762.613 Q -42.329 761.832 -42.231 761.414 Q -42.132 760.996 -41.870 759.971 Q -41.607 758.946 -41.462 758.421 Q -41.317 757.896 -41.248 757.655 Q -41.179 757.413 -41.158 757.337 Q -41.137 757.260 -40.944 756.597 Q -40.751 755.933 -40.479 755.038 Q -40.207 754.142 -40.092 753.768 Q -39.977 753.394 -39.886 753.108 Q -39.795 752.822 -39.699 752.519 Q -39.604 752.215 -39.424 751.655 Q -39.244 751.095 -39.126 750.742 Q -39.008 750.389 -38.854 749.929 Q -38.700 749.470 -38.593 749.151 Q -38.486 748.832 -38.316 748.340 Q -38.146 747.847 -38.054 747.589 Q -37.963 747.331 -37.865 747.054 Q -37.768 746.777 -37.191 745.254 Q -36.614 743.730 -36.293 742.938 Q -35.972 742.145 -35.823 741.788 Q -35.673 741.432 -35.544 741.128 Q -35.414 740.825 -35.095 740.111 Q -34.776 739.398 -33.844 737.554 Q -32.912 735.710 -32.744 735.398 Q -32.577 735.086 -31.826 733.797 Q -31.076 732.507 -30.666 731.849 Q -30.255 731.192 -29.918 730.667 Q -29.581 730.143 -29.338 729.781 Q -29.096 729.420 -28.879 729.110 Q -28.662 728.800 -28.356 728.366 Q -28.049 727.932 -27.745 727.512 Q -27.441 727.093 -26.965 726.468 Q -26.488 725.843 -25.380 724.497 Q -24.271 723.152 -24.041 722.889 Q -23.810 722.626 -23.362 722.131 Q -22.915 721.637 -22.587 721.279 Q -22.258 720.921 -21.452 720.057 "></path>
    <path id="STROKE_1f7c26af-7c37-4cca-a10e-430b18f9b1ca" opacity="1.000" fill="none" stroke="#000000" stroke-width="2.029" stroke-opacity="1.000" stroke-linecap="round" stroke-linejoin="round" d="M -21.175 719.378 L -21.151 719.197 Q -21.063 718.669 -20.982 718.186 Q -20.901 717.702 -20.783 717.216 Q -20.664 716.730 -20.552 716.378 Q -20.440 716.026 -20.298 715.671 Q -20.156 715.316 -19.959 714.926 Q -19.761 714.536 -19.410 714.029 Q -19.058 713.523 -18.761 713.211 Q -18.465 712.898 -18.099 712.621 Q -17.733 712.343 -17.404 712.169 Q -17.075 711.995 -16.668 711.875 Q -16.260 711.755 -15.734 711.729 Q -15.207 711.703 -14.977 711.739 Q -14.747 711.775 -14.319 711.938 Q -13.890 712.101 -13.683 712.227 Q -13.476 712.352 -13.258 712.536 Q -13.041 712.720 -12.861 712.923 Q -12.681 713.127 -12.555 713.306 Q -12.429 713.486 -12.325 713.679 Q -12.221 713.871 -12.141 714.071 Q -12.062 714.272 -12.009 714.461 Q -11.955 714.650 -11.903 714.970 Q -11.850 715.290 -11.848 715.633 Q -11.846 715.977 -11.916 716.366 Q -11.987 716.755 -12.098 717.072 Q -12.209 717.390 -12.364 717.681 Q -12.518 717.971 -12.709 718.223 Q -12.899 718.475 -13.087 718.672 Q -13.274 718.869 -14.123 719.362 Q -14.971 719.854 -15.267 719.933 Q -15.562 720.013 -16.047 720.066 Q -16.532 720.119 -16.880 720.114 Q -17.228 720.109 -17.717 720.019 Q -18.207 719.929 -18.758 719.746 Q -19.308 719.563 -19.684 719.385 Q -20.060 719.207 -20.582 718.950 "></path>
    <path id="STROKE_ddfa2650-fb02-47e5-a6cc-2ffc53e5a503" opacity="1.000" fill="none" stroke="#000000" stroke-width="2.029" stroke-opacity="1.000" stroke-linecap="round" stroke-linejoin="round" d="M -17.669 719.971 L -17.619 720.081 Q -17.593 720.137 -17.417 720.464 Q -17.241 720.790 -16.987 721.293 Q -16.733 721.796 -16.566 722.215 Q -16.398 722.635 -16.285 723.142 Q -16.172 723.648 -16.166 723.951 Q -16.161 724.255 -16.167 724.329 Q -16.173 724.404 -16.232 724.648 Q -16.292 724.892 -16.364 725.046 Q -16.436 725.199 -16.552 725.349 Q -16.667 725.500 -16.909 725.677 Q -17.151 725.854 -17.373 725.935 Q -17.595 726.016 -17.708 726.038 Q -17.820 726.061 -18.147 726.054 Q -18.473 726.046 -18.785 725.965 Q -19.097 725.884 -19.350 725.758 Q -19.602 725.632 -20.004 725.297 Q -20.405 724.962 -20.657 724.582 Q -20.908 724.202 -21.022 723.952 Q -21.135 723.701 -21.250 723.258 Q -21.364 722.816 -21.398 722.550 Q -21.431 722.285 -21.448 721.895 Q -21.465 721.505 -21.433 720.979 Q -21.400 720.453 -21.326 719.931 Q -21.251 719.409 -21.076 718.541 "></path>
    <path id="STROKE_ceda3377-934b-47e4-8aaf-bd76abcc81f8" opacity="1.000" fill="none" stroke="#000000" stroke-width="2.029" stroke-opacity="1.000" stroke-linecap="round" stroke-linejoin="round" d="M -21.050 718.614 Q -21.063 718.526 -21.096 718.091 Q -21.128 717.655 -21.191 717.086 Q -21.254 716.516 -21.302 716.229 Q -21.350 715.942 -21.416 715.650 Q -21.482 715.358 -21.656 714.846 Q -21.830 714.333 -21.860 714.264 Q -21.890 714.194 -21.999 713.979 Q -22.109 713.764 -22.230 713.585 Q -22.352 713.407 -22.567 713.181 Q -22.782 712.955 -22.926 712.850 Q -23.070 712.744 -23.185 712.686 Q -23.301 712.627 -23.514 712.574 Q -23.728 712.522 -23.905 712.527 Q -24.082 712.532 -24.262 712.603 Q -24.442 712.675 -24.543 712.750 Q -24.644 712.825 -24.743 712.934 Q -24.841 713.044 -24.956 713.253 Q -25.071 713.461 -25.129 713.649 Q -25.186 713.838 -25.212 714.269 Q -25.238 714.700 -25.167 715.101 Q -25.097 715.502 -25.001 715.779 Q -24.906 716.056 -24.724 716.419 Q -24.542 716.781 -24.460 716.913 Q -24.377 717.045 -24.184 717.304 Q -23.992 717.563 -23.597 717.980 Q -23.202 718.397 -22.841 718.699 Q -22.479 719.000 -22.248 719.168 Q -22.017 719.336 -21.208 719.879 "></path>
    <path id="STROKE_53fd733f-87e2-4daf-b7a8-d14e23576e62" opacity="1.000" fill="none" stroke="#000000" stroke-width="2.029" stroke-opacity="1.000" stroke-linecap="round" stroke-linejoin="round" d="M -22.058 718.970 Q -22.256 718.911 -22.358 718.877 Q -22.461 718.842 -22.885 718.724 Q -23.310 718.606 -24.140 718.441 Q -24.971 718.275 -25.299 718.241 Q -25.626 718.207 -26.002 718.204 Q -26.379 718.201 -26.776 718.260 Q -27.173 718.320 -27.424 718.405 Q -27.675 718.490 -27.913 718.622 Q -28.151 718.755 -28.335 718.940 Q -28.519 719.124 -28.618 719.296 Q -28.717 719.468 -28.762 719.610 Q -28.808 719.752 -28.797 720.046 Q -28.786 720.339 -28.721 720.527 Q -28.655 720.715 -28.574 720.850 Q -28.492 720.985 -28.319 721.166 Q -28.145 721.347 -27.935 721.488 Q -27.725 721.629 -27.592 721.696 Q -27.459 721.764 -27.176 721.855 Q -26.892 721.947 -26.556 721.990 Q -26.219 722.034 -25.796 722.008 Q -25.372 721.982 -25.060 721.915 Q -24.748 721.849 -24.243 721.661 Q -23.738 721.473 -23.459 721.330 Q -23.179 721.188 -22.822 720.954 Q -22.464 720.720 -22.145 720.472 Q -21.826 720.223 -21.454 719.890 Q -21.081 719.557 -20.740 719.247 "></path>
    <path id="STROKE_567d5a89-b0f4-45af-9656-6235e5ec6c34" opacity="1.000" fill="none" stroke="#000000" stroke-width="2.029" stroke-opacity="1.000" stroke-linecap="round" stroke-linejoin="round" d="M -38.217 748.665 Q -37.388 747.512 -37.006 747.012 Q -36.624 746.511 -36.407 746.243 Q -36.190 745.976 -35.518 745.235 Q -34.846 744.495 -34.400 744.074 Q -33.953 743.653 -33.213 743.067 Q -32.473 742.481 -32.051 742.190 Q -31.628 741.900 -31.004 741.521 Q -30.381 741.143 -29.937 740.908 Q -29.494 740.673 -28.823 740.368 Q -28.152 740.062 -26.867 739.606 Q -25.582 739.149 -24.898 738.965 Q -24.214 738.781 -23.924 738.714 Q -23.635 738.648 -22.867 738.506 Q -22.099 738.363 -21.041 738.238 Q -19.983 738.113 -18.792 738.047 Q -17.601 737.982 -17.028 737.972 Q -16.455 737.963 -15.937 737.962 Q -15.419 737.961 -14.986 737.961 L -14.868 737.956 "></path>
    <path id="STROKE_c92b8091-0852-4157-b45f-f347027cc00d" opacity="1.000" fill="none" stroke="#000000" stroke-width="2.029" stroke-opacity="1.000" stroke-linecap="round" stroke-linejoin="round" d="M -14.552 737.693 Q -14.592 737.454 -14.601 737.387 Q -14.611 737.319 -14.664 736.609 Q -14.716 735.899 -14.714 735.687 Q -14.711 735.475 -14.694 735.214 Q -14.676 734.952 -14.603 734.598 Q -14.529 734.244 -14.434 733.986 Q -14.339 733.728 -14.266 733.576 Q -14.192 733.425 -13.990 733.133 Q -13.788 732.841 -13.631 732.680 Q -13.473 732.520 -13.209 732.335 Q -12.945 732.150 -12.628 732.027 Q -12.310 731.904 -12.018 731.863 Q -11.727 731.822 -11.449 731.847 Q -11.172 731.873 -10.949 731.944 Q -10.725 732.016 -10.515 732.135 Q -10.305 732.253 -10.108 732.437 Q -9.911 732.620 -9.691 733.016 Q -9.471 733.411 -9.404 733.754 Q -9.337 734.097 -9.336 734.262 Q -9.336 734.426 -9.392 734.746 Q -9.449 735.067 -9.587 735.386 Q -9.724 735.705 -9.858 735.910 Q -9.992 736.116 -10.231 736.381 Q -10.469 736.646 -10.887 736.959 Q -11.306 737.272 -11.758 737.502 Q -12.211 737.732 -12.521 737.849 Q -12.831 737.966 -13.447 738.145 Q -14.062 738.323 -14.265 738.377 Q -14.469 738.430 -14.730 738.497 "></path>
    <path id="STROKE_dec64000-9550-4071-8ec4-25a2f6ef0509" opacity="1.000" fill="none" stroke="#000000" stroke-width="2.029" stroke-opacity="1.000" stroke-linecap="round" stroke-linejoin="round" d="M -13.043 737.231 Q -12.455 737.296 -11.933 737.380 Q -11.411 737.463 -10.881 737.601 Q -10.351 737.738 -10.086 737.834 Q -9.821 737.930 -9.496 738.089 Q -9.172 738.249 -8.884 738.431 Q -8.597 738.614 -8.410 738.761 Q -8.222 738.909 -7.978 739.154 Q -7.733 739.399 -7.542 739.653 Q -7.351 739.907 -7.281 740.024 Q -7.212 740.142 -7.048 740.497 Q -6.885 740.853 -6.805 741.157 Q -6.725 741.462 -6.701 741.667 Q -6.678 741.873 -6.695 742.178 Q -6.713 742.482 -6.779 742.733 Q -6.844 742.984 -6.998 743.267 Q -7.152 743.550 -7.278 743.695 Q -7.404 743.840 -7.616 743.998 Q -7.828 744.157 -8.211 744.302 Q -8.594 744.448 -9.003 744.489 Q -9.413 744.531 -9.929 744.457 Q -10.446 744.384 -10.797 744.255 Q -11.148 744.127 -11.350 744.020 Q -11.551 743.914 -11.907 743.644 Q -12.262 743.374 -12.503 743.110 Q -12.743 742.846 -12.922 742.565 Q -13.100 742.284 -13.279 741.800 Q -13.458 741.316 -13.539 740.817 Q -13.620 740.317 -13.626 739.838 Q -13.631 739.358 -13.592 738.915 Q -13.553 738.471 -13.418 737.508 "></path>
    <path id="STROKE_a6984b3d-09fc-44c4-90d0-1733bbb5e0c5" opacity="1.000" fill="none" stroke="#000000" stroke-width="2.029" stroke-opacity="1.000" stroke-linecap="round" stroke-linejoin="round" d="M -13.458 738.622 Q -13.473 738.912 -13.539 739.909 Q -13.605 740.906 -13.728 741.583 Q -13.851 742.259 -14.009 742.710 Q -14.168 743.161 -14.300 743.403 Q -14.432 743.644 -14.606 743.859 Q -14.781 744.073 -14.931 744.196 Q -15.082 744.319 -15.197 744.386 Q -15.312 744.453 -15.496 744.517 Q -15.679 744.581 -15.804 744.597 Q -15.928 744.612 -16.094 744.602 Q -16.259 744.592 -16.613 744.417 Q -16.967 744.242 -17.140 744.056 Q -17.314 743.871 -17.387 743.758 Q -17.459 743.644 -17.522 743.508 Q -17.584 743.371 -17.637 743.186 Q -17.689 743.001 -17.717 742.769 Q -17.744 742.536 -17.721 742.220 Q -17.699 741.904 -17.659 741.717 Q -17.619 741.529 -17.574 741.379 Q -17.529 741.229 -17.308 740.748 Q -17.086 740.266 -16.868 739.945 Q -16.649 739.623 -16.376 739.321 Q -16.103 739.018 -15.815 738.763 Q -15.527 738.508 -15.188 738.255 Q -14.848 738.003 -14.143 737.521 "></path>
    <path id="STROKE_2e8fdb65-ea44-4cc7-8eda-32138fd551dc" opacity="1.000" fill="none" stroke="#000000" stroke-width="2.029" stroke-opacity="1.000" stroke-linecap="round" stroke-linejoin="round" d="M -15.982 738.319 Q -16.047 738.290 -16.225 738.215 Q -16.403 738.141 -17.031 737.821 Q -17.659 737.501 -17.860 737.384 Q -18.062 737.267 -18.357 737.073 Q -18.653 736.879 -18.949 736.626 Q -19.246 736.372 -19.371 736.239 Q -19.497 736.105 -19.597 735.978 Q -19.697 735.851 -19.837 735.621 Q -19.976 735.391 -20.076 735.128 Q -20.176 734.864 -20.211 734.657 Q -20.245 734.449 -20.247 734.295 Q -20.248 734.141 -20.197 733.879 Q -20.146 733.617 -20.042 733.415 Q -19.937 733.213 -19.640 732.925 Q -19.343 732.638 -19.176 732.553 Q -19.009 732.468 -18.551 732.427 Q -18.094 732.385 -17.851 732.434 Q -17.609 732.482 -17.423 732.558 Q -17.236 732.633 -16.987 732.795 Q -16.738 732.958 -16.501 733.174 Q -16.264 733.391 -15.905 733.910 Q -15.546 734.429 -15.376 734.768 Q -15.206 735.107 -15.011 735.559 Q -14.816 736.010 -14.545 736.737 "></path>
    <path id="STROKE_6e21fb0a-72e2-4864-8eac-22ccfd879a46" opacity="1.000" fill="none" stroke="#000000" stroke-width="2.029" stroke-opacity="1.000" stroke-linecap="round" stroke-linejoin="round" d="M -34.296 737.113 Q -34.396 736.737 -34.480 736.419 Q -34.563 736.101 -34.856 735.071 Q -35.149 734.042 -35.394 733.318 Q -35.639 732.595 -35.785 732.210 Q -35.932 731.825 -36.131 731.324 Q -36.330 730.823 -36.744 729.955 Q -37.158 729.087 -37.530 728.402 Q -37.902 727.717 -38.206 727.221 Q -38.510 726.724 -38.657 726.505 Q -38.803 726.286 -39.380 725.498 Q -39.957 724.711 -40.407 724.171 Q -40.857 723.631 -41.103 723.359 Q -41.349 723.087 -41.544 722.879 Q -41.740 722.671 -41.978 722.426 Q -42.216 722.182 -42.956 721.421 "></path>
    <path id="STROKE_55c2551b-db6c-426f-a935-e53c8b2b134c" opacity="1.000" fill="none" stroke="#000000" stroke-width="2.029" stroke-opacity="1.000" stroke-linecap="round" stroke-linejoin="round" d="M -43.450 721.072 Q -43.488 721.093 -43.702 721.252 Q -43.916 721.411 -44.068 721.523 Q -44.220 721.635 -44.468 721.793 Q -44.717 721.951 -44.899 722.052 Q -45.081 722.153 -45.837 722.477 Q -46.593 722.801 -47.381 722.956 Q -48.170 723.111 -48.717 723.094 Q -49.265 723.077 -49.542 723.019 Q -49.820 722.961 -49.978 722.908 Q -50.135 722.856 -50.406 722.718 Q -50.676 722.579 -50.959 722.345 Q -51.241 722.111 -51.396 721.910 Q -51.551 721.709 -51.670 721.457 Q -51.790 721.204 -51.848 720.731 Q -51.907 720.258 -51.846 719.931 Q -51.785 719.603 -51.689 719.381 Q -51.593 719.159 -51.474 718.985 Q -51.355 718.811 -51.068 718.533 Q -50.780 718.255 -50.573 718.123 Q -50.365 717.990 -50.097 717.878 Q -49.828 717.766 -49.378 717.691 Q -48.928 717.616 -48.312 717.675 Q -47.696 717.734 -47.197 717.895 Q -46.699 718.057 -46.340 718.232 Q -45.982 718.407 -45.705 718.579 Q -45.428 718.751 -45.315 718.830 Q -45.202 718.910 -44.952 719.094 Q -44.701 719.278 -44.573 719.379 Q -44.444 719.480 -44.382 719.522 Q -44.320 719.565 -43.997 719.787 "></path>
    <path id="STROKE_85c64dfb-1a00-4615-b9fa-3dfc95bc15fd" opacity="1.000" fill="none" stroke="#000000" stroke-width="2.029" stroke-opacity="1.000" stroke-linecap="round" stroke-linejoin="round" d="M -43.760 719.497 Q -43.791 719.441 -43.942 719.176 Q -44.094 718.911 -44.281 718.552 Q -44.469 718.193 -44.692 717.661 Q -44.914 717.128 -45.076 716.524 Q -45.237 715.920 -45.275 715.515 Q -45.313 715.110 -45.299 714.828 Q -45.284 714.547 -45.205 714.188 Q -45.125 713.829 -44.996 713.537 Q -44.867 713.244 -44.739 713.055 Q -44.611 712.866 -44.462 712.704 Q -44.312 712.543 -44.071 712.368 Q -43.829 712.193 -43.369 712.042 Q -42.909 711.891 -42.482 711.895 Q -42.054 711.900 -41.790 711.972 Q -41.525 712.044 -41.223 712.209 Q -40.922 712.374 -40.635 712.651 Q -40.347 712.929 -40.152 713.237 Q -39.958 713.545 -39.828 713.927 Q -39.698 714.309 -39.647 714.751 Q -39.596 715.193 -39.633 715.666 Q -39.670 716.139 -39.762 716.528 Q -39.855 716.916 -40.282 717.833 Q -40.709 718.750 -41.057 719.287 Q -41.406 719.825 -41.571 720.063 Q -41.736 720.301 -41.859 720.465 Q -41.982 720.630 -42.158 720.854 "></path>
    <path id="STROKE_d397470b-185f-4e62-95d2-f37d30722464" opacity="1.000" fill="none" stroke="#000000" stroke-width="2.029" stroke-opacity="1.000" stroke-linecap="round" stroke-linejoin="round" d="M -41.262 719.306 Q -41.054 719.401 -40.501 719.716 Q -39.948 720.031 -39.641 720.242 Q -39.334 720.454 -39.218 720.544 Q -39.103 720.634 -38.874 720.852 Q -38.645 721.069 -38.452 721.325 Q -38.259 721.581 -38.133 721.846 Q -38.008 722.112 -37.966 722.273 Q -37.925 722.434 -37.912 722.616 Q -37.900 722.799 -37.931 722.957 Q -37.963 723.116 -38.048 723.283 Q -38.133 723.449 -38.262 723.589 Q -38.391 723.728 -38.674 723.852 Q -38.957 723.975 -39.148 723.999 Q -39.339 724.023 -39.538 724.011 Q -39.737 723.998 -40.011 723.921 Q -40.285 723.843 -40.641 723.647 Q -40.997 723.450 -41.180 723.306 Q -41.363 723.162 -41.503 723.027 Q -41.643 722.891 -41.760 722.760 Q -41.877 722.628 -42.074 722.360 Q -42.271 722.092 -42.428 721.851 Q -42.585 721.609 -42.824 721.224 "></path>
    <path id="STROKE_75b907bf-8392-4900-8e0d-47bbca508057" opacity="1.000" fill="none" stroke="#000000" stroke-width="2.029" stroke-opacity="1.000" stroke-linecap="round" stroke-linejoin="round" d="M -43.997 720.789 Q -44.087 720.883 -44.259 721.059 Q -44.431 721.234 -44.687 721.526 Q -44.943 721.817 -45.071 721.978 Q -45.199 722.140 -45.285 722.250 Q -45.372 722.361 -45.697 722.882 Q -46.023 723.404 -46.213 723.825 Q -46.402 724.246 -46.489 724.527 Q -46.575 724.807 -46.644 725.280 Q -46.714 725.754 -46.692 726.141 Q -46.669 726.528 -46.571 726.860 Q -46.472 727.192 -46.322 727.443 Q -46.173 727.694 -46.039 727.830 Q -45.905 727.965 -45.710 728.083 Q -45.515 728.201 -45.255 728.262 Q -44.995 728.323 -44.716 728.298 Q -44.436 728.272 -44.240 728.204 Q -44.045 728.136 -43.856 728.025 Q -43.667 727.914 -43.370 727.626 Q -43.073 727.339 -42.885 727.039 Q -42.697 726.740 -42.586 726.453 Q -42.474 726.165 -42.398 725.614 Q -42.322 725.062 -42.331 724.728 Q -42.341 724.394 -42.404 723.979 Q -42.466 723.564 -42.569 723.156 Q -42.672 722.748 -43.180 721.270 "></path>
  </g>
</svg>